<svg width="20" height="20" viewBox="0 0 20 20" fill="none" xmlns="http://www.w3.org/2000/svg">
<g id="azerbaijan" clip-path="url(#clip0_3202_24736)">
<path id="Vector" d="M20 9.99996C20 8.77676 19.78 7.605 19.378 6.52172L10 6.08691L0.621992 6.52168C0.220039 7.605 0 8.77676 0 9.99996C0 11.2232 0.220039 12.3949 0.621992 13.4782L10 13.913L19.378 13.4782C19.78 12.3949 20 11.2232 20 9.99996Z" fill="#D80027"/>
<path id="Vector_2" d="M9.99996 19.9998C14.2996 19.9998 17.965 17.286 19.378 13.478H0.621948C2.03488 17.286 5.70031 19.9998 9.99996 19.9998Z" fill="#30C22F"/>
<path id="Vector_3" d="M0.621948 6.52176H19.378C17.965 2.71375 14.2996 0 9.99996 0C5.70031 0 2.03488 2.71375 0.621948 6.52176Z" fill="#338AF3"/>
<g id="Group">
<path id="Vector_4" d="M10.2174 12.8259C8.65664 12.8259 7.39132 11.5605 7.39132 9.99977C7.39132 8.43898 8.65664 7.17367 10.2174 7.17367C10.7041 7.17367 11.162 7.29672 11.5618 7.51336C10.9346 6.90004 10.0769 6.52148 9.13046 6.52148C7.20945 6.52148 5.65222 8.07875 5.65222 9.99973C5.65222 11.9207 7.20949 13.478 9.13046 13.478C10.0769 13.478 10.9346 13.0994 11.5618 12.4861C11.162 12.7028 10.7041 12.8259 10.2174 12.8259Z" fill="#F0F0F0"/>
<path id="Vector_5" d="M12.3913 8.04346L12.7657 9.09623L13.7748 8.61647L13.2951 9.62561L14.3479 9.99998L13.2951 10.3744L13.7748 11.3835L12.7657 10.9037L12.3913 11.9565L12.017 10.9037L11.0079 11.3835L11.4876 10.3744L10.4348 9.99998L11.4876 9.62561L11.0079 8.61647L12.017 9.09623L12.3913 8.04346Z" fill="#F0F0F0"/>
</g>
</g>
<defs>
<clipPath id="clip0_3202_24736">
<rect width="20" height="20" fill="white"/>
</clipPath>
</defs>
</svg>
